torrent name

Accepted (2006) 720p _sujaidr


video details
ID                               : 1
Format                           : AVC
Format/Info                      : Advanced Video Codec
Format profile                   : Baseline@L3.0
Format settings, CABAC           : No
Format settings, ReFrames        : 1 frame
Muxing mode                      : Header stripping
Codec ID                         : V_MPEG4/ISO/AVC
Duration                         : 1h 33mn
Bit rate                         : 919 Kbps
Width                            : 1 280 pixels
Height                           : 544 pixels
Display aspect ratio             : 2.35:1
Frame rate                       : 23.976 fps
Color space                      : YUV
Chroma subsampling               : 4:2:0
Bit depth                        : 8 bits
Scan type                        : Progressive
Bits/(Pixel*Frame)               : 0.055
Stream size                      : 599 MiB (86%

audio details
ID                               : 2
Format                           : AC-3
Format/Info                      : Audio Coding 3
Mode extension                   : CM (complete main)
Muxing mode                      : Header stripping
Codec ID                         : A_AC3
Duration                         : 1h 33mn
Bit rate mode                    : Constant
Bit rate                         : 128 Kbps
Channel(s)                       : 6 channels
Channel positions                : Front: L C R, Side: L R, LFE
Sampling rate                    : 48.0 KHz
Bit depth                        : 16 bits
Compression mode                 : Lossy
Stream size                      : 85.2 MiB (12%)

language                          English
                   

subtitle                          English muxed

PLOT:A high school slacker who's rejected by every school he applies to opts to create his own institution of higher learning, the South Harmon Institute of Technology, on a rundown piece of property near his hometown.

Ratings: 6.4/10 from 45,459 users 
Director:Steve Pink
Stars:  Justin Long, Jonah Hill and Blake Lively
imdb:  http://www.imdb.com/title/tt0384793/

screenshots

                http://img191.imageshack.us/img191/9195/vlcsnap2012032714h42m17.png

                http://img543.imageshack.us/img543/7596/vlcsnap2012032714h44m42.png

                http://img189.imageshack.us/img189/5921/vlcsnap2012032714h45m36.png

                http://img525.imageshack.us/img525/8205/vlcsnap2012032714h48m49.png
